<svg width="177" height="20" viewBox="0 0 177 20" fill="none" xmlns="http://www.w3.org/2000/svg">
<path d="M35.3468 5.77762C35.2801 5.77762 35.2135 5.76323 35.1551 5.73444C33.5548 5.02195 32.1712 4.71968 30.5125 4.71968C28.8622 4.71968 27.2952 5.05794 25.8699 5.73444C25.6698 5.828 25.4198 5.76323 25.3031 5.5905C25.1947 5.41778 25.2698 5.19468 25.4698 5.10112C27.0201 4.37424 28.7205 4 30.5125 4C32.2879 4 33.8382 4.33825 35.5385 5.09392C35.7469 5.18748 35.8219 5.40338 35.7136 5.57611C35.6386 5.70565 35.4969 5.77762 35.3468 5.77762ZM23.4194 9.55596C23.336 9.55596 23.2527 9.53437 23.1777 9.49119C22.986 9.37604 22.9443 9.15294 23.0776 8.98741C23.9028 7.97985 24.953 7.1882 26.2033 6.63404C28.8205 5.46816 32.1712 5.46096 34.7967 6.62685C36.047 7.181 37.0972 7.96546 37.9224 8.96582C38.0557 9.12415 38.014 9.35445 37.8223 9.4696C37.6306 9.58475 37.3722 9.54876 37.2389 9.38324C36.4887 8.47643 35.5385 7.76395 34.4133 7.26737C32.0211 6.20943 28.9622 6.20943 26.5784 7.27456C25.4448 7.77834 24.4946 8.49803 23.7445 9.40483C23.6778 9.50558 23.5527 9.55596 23.4194 9.55596ZM28.6288 18.2425C28.5204 18.2425 28.4121 18.2066 28.3371 18.1346C27.6119 17.5085 27.2202 17.1054 26.6617 16.2346C26.0866 15.3494 25.7865 14.2699 25.7865 13.1112C25.7865 10.9737 27.9036 9.2321 30.5042 9.2321C33.1047 9.2321 35.2218 10.9737 35.2218 13.1112C35.2218 13.3127 35.0384 13.471 34.805 13.471C34.5717 13.471 34.3883 13.3127 34.3883 13.1112C34.3883 11.3696 32.6463 9.95179 30.5042 9.95179C28.3621 9.95179 26.62 11.3696 26.62 13.1112C26.62 14.1475 26.8868 15.1047 27.3952 15.882C27.9286 16.7096 28.2954 17.0623 28.9372 17.6236C29.0955 17.7676 29.0955 17.9907 28.9372 18.1346C28.8455 18.2066 28.7371 18.2425 28.6288 18.2425ZM34.605 16.9111C33.6131 16.9111 32.738 16.6952 32.0211 16.2706C30.7792 15.5437 30.0374 14.3634 30.0374 13.1112C30.0374 12.9097 30.2208 12.7514 30.4542 12.7514C30.6875 12.7514 30.8709 12.9097 30.8709 13.1112C30.8709 14.126 31.471 15.0831 32.4879 15.6733C33.0797 16.0187 33.7715 16.1843 34.605 16.1843C34.805 16.1843 35.1384 16.1627 35.4719 16.1123C35.6969 16.0763 35.9136 16.2058 35.9553 16.4074C35.997 16.6017 35.8469 16.7888 35.6135 16.8248C35.1384 16.9039 34.7217 16.9111 34.605 16.9111ZM32.9297 18.3937C32.8963 18.3937 32.8546 18.3865 32.8213 18.3793C31.496 18.0626 30.6292 17.638 29.7207 16.8679C28.5538 15.8676 27.912 14.5362 27.912 13.1112C27.912 11.9453 29.0622 10.9953 30.4792 10.9953C31.8961 10.9953 33.0464 11.9453 33.0464 13.1112C33.0464 13.8813 33.8215 14.5074 34.78 14.5074C35.7386 14.5074 36.5137 13.8813 36.5137 13.1112C36.5137 10.398 33.8048 8.19576 30.4708 8.19576C28.1037 8.19576 25.9366 9.33286 24.9614 11.0961C24.6363 11.679 24.4696 12.3627 24.4696 13.1112C24.4696 13.6726 24.5279 14.5578 25.028 15.7093C25.1114 15.8964 25.003 16.1051 24.7863 16.1699C24.5696 16.2418 24.3279 16.1411 24.2529 15.9611C23.8445 15.0184 23.6444 14.0828 23.6444 13.1112C23.6444 12.2476 23.8361 11.4631 24.2112 10.7794C25.3198 8.7715 27.7786 7.46888 30.4708 7.46888C34.2633 7.46888 37.3472 9.99497 37.3472 13.104C37.3472 14.2699 36.197 15.2199 34.78 15.2199C33.3631 15.2199 32.2129 14.2699 32.2129 13.104C32.2129 12.3339 31.4377 11.7078 30.4792 11.7078C29.5206 11.7078 28.7455 12.3339 28.7455 13.104C28.7455 14.3347 29.2956 15.4862 30.3041 16.3498C31.096 17.0263 31.8544 17.4005 33.0297 17.6812C33.2547 17.7316 33.3798 17.9331 33.3214 18.1202C33.2797 18.2857 33.1047 18.3937 32.9297 18.3937Z" fill="white"/>
<path d="M24.2863 1.248L19.6063 18H15.6463L12.5023 6.072L9.21428 18L5.27828 18.024L0.766281 1.248H4.36628L7.31828 14.256L10.7263 1.248H14.4703L17.6863 14.184L20.6623 1.248H24.2863ZM56.1485 4.512C57.7805 4.512 59.0925 5.016 60.0845 6.024C61.0925 7.016 61.5965 8.408 61.5965 10.2V18H58.2365V10.656C58.2365 9.616 57.9725 8.824 57.4445 8.28C56.9165 7.72 56.1965 7.44 55.2845 7.44C54.3725 7.44 53.6445 7.72 53.1005 8.28C52.5725 8.824 52.3085 9.616 52.3085 10.656V18H48.9485V10.656C48.9485 9.616 48.6845 8.824 48.1565 8.28C47.6285 7.72 46.9085 7.44 45.9965 7.44C45.0685 7.44 44.3325 7.72 43.7885 8.28C43.2605 8.824 42.9965 9.616 42.9965 10.656V18H39.6365V4.704H42.9965V6.312C43.4285 5.752 43.9805 5.312 44.6525 4.992C45.3405 4.672 46.0925 4.512 46.9085 4.512C47.9485 4.512 48.8765 4.736 49.6925 5.184C50.5085 5.616 51.1405 6.24 51.5885 7.056C52.0205 6.288 52.6445 5.672 53.4605 5.208C54.2925 4.744 55.1885 4.512 56.1485 4.512ZM76.1449 11.064C76.1449 11.544 76.1129 11.976 76.0489 12.36H66.3289C66.4089 13.32 66.7449 14.072 67.3369 14.616C67.9289 15.16 68.6569 15.432 69.5209 15.432C70.7689 15.432 71.6569 14.896 72.1849 13.824H75.8089C75.4249 15.104 74.6889 16.16 73.6009 16.992C72.5129 17.808 71.1769 18.216 69.5929 18.216C68.3129 18.216 67.1609 17.936 66.1369 17.376C65.1289 16.8 64.3369 15.992 63.7609 14.952C63.2009 13.912 62.9209 12.712 62.9209 11.352C62.9209 9.976 63.2009 8.768 63.7609 7.728C64.3209 6.688 65.1049 5.888 66.1129 5.328C67.1209 4.768 68.2809 4.488 69.5929 4.488C70.8569 4.488 71.9849 4.76 72.9769 5.304C73.9849 5.848 74.7609 6.624 75.3049 7.632C75.8649 8.624 76.1449 9.768 76.1449 11.064ZM72.6649 10.104C72.6489 9.24 72.3369 8.552 71.7289 8.04C71.1209 7.512 70.3769 7.248 69.4969 7.248C68.6649 7.248 67.9609 7.504 67.3849 8.016C66.8249 8.512 66.4809 9.208 66.3529 10.104H72.6649ZM84.9654 4.512C86.5494 4.512 87.8294 5.016 88.8054 6.024C89.7814 7.016 90.2694 8.408 90.2694 10.2V18H86.9094V10.656C86.9094 9.6 86.6454 8.792 86.1174 8.232C85.5894 7.656 84.8694 7.368 83.9574 7.368C83.0294 7.368 82.2934 7.656 81.7494 8.232C81.2214 8.792 80.9574 9.6 80.9574 10.656V18H77.5974V4.704H80.9574V6.36C81.4054 5.784 81.9734 5.336 82.6614 5.016C83.3654 4.68 84.1334 4.512 84.9654 4.512ZM100.543 1.248V18H97.1833V1.248H100.543ZM110.231 4.512C111.815 4.512 113.095 5.016 114.071 6.024C115.047 7.016 115.535 8.408 115.535 10.2V18H112.175V10.656C112.175 9.6 111.911 8.792 111.383 8.232C110.855 7.656 110.135 7.368 109.223 7.368C108.295 7.368 107.559 7.656 107.015 8.232C106.487 8.792 106.223 9.6 106.223 10.656V18H102.863V4.704H106.223V6.36C106.671 5.784 107.239 5.336 107.927 5.016C108.631 4.68 109.399 4.512 110.231 4.512ZM133.849 1.248V3.96H129.385V18H126.025V3.96H121.561V1.248H133.849ZM147.661 11.064C147.661 11.544 147.629 11.976 147.565 12.36H137.845C137.925 13.32 138.261 14.072 138.853 14.616C139.445 15.16 140.173 15.432 141.037 15.432C142.285 15.432 143.173 14.896 143.701 13.824H147.325C146.941 15.104 146.205 16.16 145.117 16.992C144.029 17.808 142.693 18.216 141.109 18.216C139.829 18.216 138.677 17.936 137.653 17.376C136.645 16.8 135.853 15.992 135.277 14.952C134.717 13.912 134.437 12.712 134.437 11.352C134.437 9.976 134.717 8.768 135.277 7.728C135.837 6.688 136.621 5.888 137.629 5.328C138.637 4.768 139.797 4.488 141.109 4.488C142.373 4.488 143.501 4.76 144.493 5.304C145.501 5.848 146.277 6.624 146.821 7.632C147.381 8.624 147.661 9.768 147.661 11.064ZM144.181 10.104C144.165 9.24 143.853 8.552 143.245 8.04C142.637 7.512 141.893 7.248 141.013 7.248C140.181 7.248 139.477 7.504 138.901 8.016C138.341 8.512 137.997 9.208 137.869 10.104H144.181ZM148.249 11.352C148.249 9.976 148.529 8.776 149.089 7.752C149.649 6.712 150.425 5.912 151.417 5.352C152.409 4.776 153.545 4.488 154.825 4.488C156.473 4.488 157.833 4.904 158.905 5.736C159.993 6.552 160.721 7.704 161.089 9.192H157.465C157.273 8.616 156.945 8.168 156.481 7.848C156.033 7.512 155.473 7.344 154.801 7.344C153.841 7.344 153.081 7.696 152.521 8.4C151.961 9.088 151.681 10.072 151.681 11.352C151.681 12.616 151.961 13.6 152.521 14.304C153.081 14.992 153.841 15.336 154.801 15.336C156.161 15.336 157.049 14.728 157.465 13.512H161.089C160.721 14.952 159.993 16.096 158.905 16.944C157.817 17.792 156.457 18.216 154.825 18.216C153.545 18.216 152.409 17.936 151.417 17.376C150.425 16.8 149.649 16 149.089 14.976C148.529 13.936 148.249 12.728 148.249 11.352ZM170.039 4.512C171.047 4.512 171.943 4.736 172.727 5.184C173.511 5.616 174.119 6.264 174.551 7.128C174.999 7.976 175.223 9 175.223 10.2V18H171.863V10.656C171.863 9.6 171.599 8.792 171.071 8.232C170.543 7.656 169.823 7.368 168.911 7.368C167.983 7.368 167.247 7.656 166.703 8.232C166.175 8.792 165.911 9.6 165.911 10.656V18H162.551V0.24H165.911V6.36C166.343 5.784 166.919 5.336 167.639 5.016C168.359 4.68 169.159 4.512 170.039 4.512Z" fill="white"/>
</svg>
