<svg xmlns="http://www.w3.org/2000/svg" version="1.1" xmlns:xlink="http://www.w3.org/1999/xlink" xmlns:svgjs="http://svgjs.com/svgjs" width="1440" height="560" preserveAspectRatio="none" viewBox="0 0 1440 560"><g mask="url(&quot;#SvgjsMask1021&quot;)" fill="none"><rect width="1440" height="560" x="0" y="0" fill="rgba(255, 255, 255, 1)"></rect><path d="M1107 282L874 49" stroke-width="8" stroke="url(#SvgjsLinearGradient1022)" stroke-linecap="round" class="BottomRight"></path><path d="M931 73L595 -263" stroke-width="8" stroke="url(#SvgjsLinearGradient1023)" stroke-linecap="round" class="TopLeft"></path><path d="M714 146L548 -20" stroke-width="10" stroke="url(#SvgjsLinearGradient1022)" stroke-linecap="round" class="BottomRight"></path><path d="M812 295L1120 603" stroke-width="8" stroke="url(#SvgjsLinearGradient1022)" stroke-linecap="round" class="BottomRight"></path><path d="M422 235L778 591" stroke-width="8" stroke="url(#SvgjsLinearGradient1023)" stroke-linecap="round" class="TopLeft"></path><path d="M685 405L322 42" stroke-width="10" stroke="url(#SvgjsLinearGradient1022)" stroke-linecap="round" class="BottomRight"></path><path d="M601 446L242 87" stroke-width="10" stroke="url(#SvgjsLinearGradient1022)" stroke-linecap="round" class="BottomRight"></path><path d="M819 539L475 195" stroke-width="8" stroke="url(#SvgjsLinearGradient1023)" stroke-linecap="round" class="TopLeft"></path><path d="M158 317L534 693" stroke-width="6" stroke="url(#SvgjsLinearGradient1022)" stroke-linecap="round" class="BottomRight"></path><path d="M461 539L290 368" stroke-width="6" stroke="url(#SvgjsLinearGradient1022)" stroke-linecap="round" class="BottomRight"></path><path d="M442 237L730 525" stroke-width="10" stroke="url(#SvgjsLinearGradient1023)" stroke-linecap="round" class="TopLeft"></path><path d="M1190 4L858 -328" stroke-width="6" stroke="url(#SvgjsLinearGradient1022)" stroke-linecap="round" class="BottomRight"></path><path d="M635 121L337 -177" stroke-width="10" stroke="url(#SvgjsLinearGradient1022)" stroke-linecap="round" class="BottomRight"></path><path d="M708 427L921 640" stroke-width="8" stroke="url(#SvgjsLinearGradient1023)" stroke-linecap="round" class="TopLeft"></path><path d="M275 13L501 239" stroke-width="8" stroke="url(#SvgjsLinearGradient1022)" stroke-linecap="round" class="BottomRight"></path><path d="M935 312L1114 491" stroke-width="8" stroke="url(#SvgjsLinearGradient1022)" stroke-linecap="round" class="BottomRight"></path><path d="M186 436L578 828" stroke-width="10" stroke="url(#SvgjsLinearGradient1023)" stroke-linecap="round" class="TopLeft"></path><path d="M1279 551L946 218" stroke-width="8" stroke="url(#SvgjsLinearGradient1023)" stroke-linecap="round" class="TopLeft"></path><path d="M446 554L707 815" stroke-width="8" stroke="url(#SvgjsLinearGradient1022)" stroke-linecap="round" class="BottomRight"></path><path d="M872 392L1165 685" stroke-width="6" stroke="url(#SvgjsLinearGradient1022)" stroke-linecap="round" class="BottomRight"></path><path d="M462 112L646 296" stroke-width="8" stroke="url(#SvgjsLinearGradient1023)" stroke-linecap="round" class="TopLeft"></path><path d="M1242 214L862 -166" stroke-width="10" stroke="url(#SvgjsLinearGradient1023)" stroke-linecap="round" class="TopLeft"></path><path d="M1131 470L795 134" stroke-width="8" stroke="url(#SvgjsLinearGradient1022)" stroke-linecap="round" class="BottomRight"></path><path d="M180 249L-58 11" stroke-width="8" stroke="url(#SvgjsLinearGradient1022)" stroke-linecap="round" class="BottomRight"></path><path d="M294 439L-10 135" stroke-width="10" stroke="url(#SvgjsLinearGradient1022)" stroke-linecap="round" class="BottomRight"></path><path d="M1439 555L1296 412" stroke-width="10" stroke="url(#SvgjsLinearGradient1022)" stroke-linecap="round" class="BottomRight"></path><path d="M1384 495L1655 766" stroke-width="10" stroke="url(#SvgjsLinearGradient1022)" stroke-linecap="round" class="BottomRight"></path><path d="M285 201L102 18" stroke-width="10" stroke="url(#SvgjsLinearGradient1022)" stroke-linecap="round" class="BottomRight"></path><path d="M934 108L1230 404" stroke-width="6" stroke="url(#SvgjsLinearGradient1023)" stroke-linecap="round" class="TopLeft"></path><path d="M459 10L628 179" stroke-width="6" stroke="url(#SvgjsLinearGradient1023)" stroke-linecap="round" class="TopLeft"></path><path d="M743 261L512 30" stroke-width="10" stroke="url(#SvgjsLinearGradient1023)" stroke-linecap="round" class="TopLeft"></path><path d="M1253 490L1529 766" stroke-width="10" stroke="url(#SvgjsLinearGradient1022)" stroke-linecap="round" class="BottomRight"></path><path d="M807 370L1064 627" stroke-width="10" stroke="url(#SvgjsLinearGradient1022)" stroke-linecap="round" class="BottomRight"></path><path d="M915 138L700 -77" stroke-width="10" stroke="url(#SvgjsLinearGradient1023)" stroke-linecap="round" class="TopLeft"></path><path d="M1223 203L1527 507" stroke-width="8" stroke="url(#SvgjsLinearGradient1023)" stroke-linecap="round" class="TopLeft"></path><path d="M488 27L886 425" stroke-width="6" stroke="url(#SvgjsLinearGradient1023)" stroke-linecap="round" class="TopLeft"></path><path d="M959 324L711 76" stroke-width="6" stroke="url(#SvgjsLinearGradient1023)" stroke-linecap="round" class="TopLeft"></path><path d="M289 55L-33 -267" stroke-width="6" stroke="url(#SvgjsLinearGradient1023)" stroke-linecap="round" class="TopLeft"></path><path d="M664 488L953 777" stroke-width="6" stroke="url(#SvgjsLinearGradient1023)" stroke-linecap="round" class="TopLeft"></path></g><defs><mask id="SvgjsMask1021"><rect width="1440" height="560" fill="#ffffff"></rect></mask><linearGradient x1="0%" y1="0%" x2="100%" y2="100%" id="SvgjsLinearGradient1022"><stop stop-color="rgba(227, 227, 227, 0)" offset="0"></stop><stop stop-color="rgba(227, 227, 227, 1)" offset="1"></stop></linearGradient><linearGradient x1="100%" y1="100%" x2="0%" y2="0%" id="SvgjsLinearGradient1023"><stop stop-color="rgba(227, 227, 227, 0)" offset="0"></stop><stop stop-color="rgba(227, 227, 227, 1)" offset="1"></stop></linearGradient></defs></svg>